<?xml version="1.0" standalone="no"?>
<!DOCTYPE svg PUBLIC "-//W3C//DTD SVG 20010904//EN"
 "http://www.w3.org/TR/2001/REC-SVG-20010904/DTD/svg10.dtd">
<svg version="1.0" xmlns="http://www.w3.org/2000/svg"
 width="174.000000pt" height="126.000000pt" viewBox="0 0 174.000000 126.000000"
 preserveAspectRatio="xMidYMid meet">

<g transform="translate(0.000000,126.000000) scale(0.100000,-0.100000)"
fill="#000000" stroke="none">
<path d="M415 1186 c-131 -42 -221 -130 -267 -265 -33 -97 -31 -245 5 -356 61
-187 199 -342 367 -412 57 -24 79 -27 175 -28 104 0 113 2 177 33 81 39 133
96 185 199 54 107 90 122 214 84 35 -11 80 -23 100 -26 86 -16 177 42 226 143
24 50 27 69 27 152 0 79 -4 103 -23 142 -35 72 -94 125 -157 144 -77 22 -127
10 -244 -58 -123 -72 -174 -69 -235 13 -48 65 -145 151 -211 186 -111 59 -246
79 -339 49z m176 -352 c9 -11 10 -20 2 -32 -8 -14 -35 -18 -164 -22 l-154 -5
-3 -32 -3 -33 154 0 c129 0 157 -3 168 -16 9 -11 10 -20 2 -32 -9 -15 -33 -17
-167 -20 l-156 -3 0 -28 c0 -17 6 -31 16 -35 9 -3 80 -6 159 -6 149 0 164 -5
149 -45 -5 -12 -34 -15 -170 -15 -158 0 -164 1 -191 24 -27 23 -28 29 -32 127
-3 117 11 161 58 178 14 5 92 10 172 10 122 1 149 -2 160 -15z m179 -108 c48
-65 89 -119 93 -120 3 0 43 50 89 113 95 130 112 145 134 117 11 -15 14 -53
14 -160 0 -78 -4 -147 -9 -154 -4 -8 -19 -12 -32 -10 -23 3 -24 7 -29 99 l-5
95 -70 -98 c-50 -70 -76 -98 -91 -98 -15 0 -40 27 -90 96 l-69 96 -3 -74 c-3
-108 -7 -120 -40 -116 l-27 3 -3 154 c-3 157 3 185 36 179 9 -2 54 -56 102
-122z m754 108 c42 -42 10 -53 -160 -56 l-149 -3 0 -30 0 -30 128 -3 c148 -3
171 -12 187 -73 13 -45 -6 -101 -39 -118 -13 -8 -78 -11 -183 -9 l-163 3 0 25
0 25 154 5 c132 4 155 7 165 23 8 12 8 22 0 35 -9 14 -32 18 -148 22 -130 5
-139 6 -157 29 -36 44 -19 129 32 157 37 21 312 19 333 -2z"/>
</g>
</svg>
