<?xml version="1.0" standalone="no"?>
<!DOCTYPE svg PUBLIC "-//W3C//DTD SVG 20010904//EN"
 "http://www.w3.org/TR/2001/REC-SVG-20010904/DTD/svg10.dtd">
<svg version="1.0" xmlns="http://www.w3.org/2000/svg"
 width="3840.000000pt" height="2160.000000pt" viewBox="0 0 3840.000000 2160.000000"
 preserveAspectRatio="xMidYMid meet">

<g transform="translate(0.000000,2160.000000) scale(0.100000,-0.100000)"
fill="#000000" stroke="none">
<path d="M19095 21442 c-181 -10 -444 -62 -630 -124 -153 -51 -429 -186 -660
-323 -479 -284 -642 -367 -947 -480 -204 -76 -485 -150 -658 -175 -213 -30
-644 -32 -895 -5 -148 17 -382 51 -645 95 -504 84 -616 96 -920 94 -498 -3
-881 -118 -1239 -371 -253 -179 -396 -324 -911 -928 -291 -341 -493 -544 -730
-732 -156 -124 -249 -184 -426 -272 -292 -147 -569 -248 -1059 -386 -628 -177
-788 -232 -1050 -360 -290 -141 -583 -355 -701 -511 -164 -219 -307 -503 -393
-779 -73 -239 -112 -441 -191 -990 -190 -1324 -309 -1630 -1025 -2630 -282
-395 -410 -600 -507 -816 -137 -306 -200 -612 -197 -954 3 -362 72 -666 224
-982 110 -231 201 -373 572 -901 383 -544 587 -920 688 -1266 103 -355 152
-601 239 -1201 92 -633 136 -850 226 -1110 109 -315 305 -654 461 -801 134
-125 331 -263 510 -358 259 -137 471 -214 1025 -371 449 -128 669 -198 862
-276 466 -189 685 -335 1065 -708 177 -174 271 -278 532 -586 97 -115 231
-269 296 -340 364 -401 732 -644 1120 -739 242 -59 342 -70 629 -71 337 0 384
5 934 96 259 42 450 70 651 94 91 11 628 14 730 4 140 -13 209 -25 371 -64
411 -101 754 -247 1199 -510 308 -182 398 -233 550 -306 552 -266 1148 -306
1713 -115 234 79 353 139 752 374 432 256 717 391 1025 487 209 65 431 116
565 130 96 10 621 14 715 5 252 -25 366 -40 725 -100 519 -86 583 -93 880 -94
340 -1 445 10 700 74 316 80 636 273 943 569 116 112 260 273 577 646 312 368
601 647 874 844 118 86 406 232 626 318 209 83 393 142 850 272 550 157 704
212 963 343 208 105 406 242 574 395 127 116 342 492 437 761 98 280 148 525
241 1182 103 725 207 1161 355 1482 128 279 293 555 559 932 294 419 323 461
404 591 215 345 334 652 383 990 24 164 24 496 0 655 -39 260 -99 449 -221
695 -104 211 -193 351 -484 759 -352 495 -444 643 -596 948 -194 392 -282 748
-420 1706 -78 539 -120 745 -205 1000 -105 315 -312 680 -467 822 -264 243
-592 429 -997 569 -82 28 -330 103 -550 166 -674 193 -886 270 -1215 441 -250
130 -429 271 -732 573 -113 113 -273 285 -354 381 -352 414 -446 519 -566 640
-246 246 -478 409 -749 527 -119 52 -236 85 -414 118 -177 32 -270 40 -481 40
-270 0 -374 -11 -945 -105 -524 -85 -714 -105 -1020 -105 -347 0 -527 24 -835
110 -379 106 -671 239 -1150 525 -422 252 -627 347 -910 420 -203 52 -473 83
-650 72z m705 -2346 c140 -4 271 -9 290 -11 19 -1 98 -6 175 -9 77 -4 158 -9
180 -11 22 -2 85 -7 140 -10 55 -3 118 -8 140 -10 22 -2 72 -7 110 -10 84 -7
164 -14 225 -20 157 -17 229 -24 270 -30 19 -2 58 -7 85 -10 43 -5 159 -20
320 -41 236 -31 686 -108 981 -168 2907 -587 5266 -1931 6669 -3801 851 -1134
1318 -2384 1404 -3760 11 -169 10 -657 0 -810 -68 -968 -294 -1807 -711 -2638
-488 -976 -1230 -1871 -2172 -2621 -1575 -1256 -3675 -2102 -6081 -2450 -219
-32 -581 -77 -730 -91 -33 -3 -78 -7 -100 -10 -22 -2 -71 -7 -110 -10 -38 -3
-88 -8 -110 -10 -22 -2 -83 -7 -135 -10 -52 -4 -108 -8 -125 -10 -16 -2 -91
-7 -165 -10 -74 -4 -148 -8 -165 -10 -238 -26 -1708 -26 -1985 0 -19 1 -93 6
-165 10 -71 4 -146 8 -165 10 -19 2 -78 6 -130 9 -52 4 -111 9 -130 11 -19 2
-66 6 -105 10 -67 5 -99 8 -217 20 -116 12 -148 16 -273 30 -160 19 -203 24
-235 30 -14 2 -47 7 -75 10 -110 13 -462 69 -670 106 -1354 243 -2571 633
-3668 1176 -1536 760 -2765 1791 -3585 3006 -202 299 -332 525 -497 858 -393
796 -604 1574 -680 2504 -13 167 -13 864 0 995 33 321 51 465 80 635 221 1308
823 2518 1780 3575 163 179 515 525 695 682 1624 1414 3837 2351 6435 2722
251 36 255 37 455 60 119 14 164 19 298 32 31 3 73 7 92 9 19 2 71 7 115 10
44 3 96 8 115 10 19 2 80 7 135 11 55 3 116 7 135 9 19 2 100 6 180 10 80 4
161 9 180 10 19 2 172 7 340 11 168 4 306 7 307 8 6 4 621 -2 853 -8z"/>
<path d="M18465 18619 c-3269 -131 -6042 -1094 -7964 -2766 -178 -155 -590
-564 -732 -728 -1028 -1183 -1583 -2501 -1669 -3970 -42 -714 49 -1480 256
-2168 654 -2173 2474 -3957 5104 -5002 2020 -803 4461 -1141 6995 -970 3072
208 5709 1195 7510 2810 695 622 1257 1348 1650 2125 386 766 594 1515 666
2400 15 187 15 723 0 910 -72 886 -282 1639 -672 2410 -499 987 -1249 1859
-2239 2604 -1790 1346 -4260 2160 -7060 2326 -507 30 -1360 39 -1845 19z
m-3712 -3409 c493 -24 807 -94 1182 -265 200 -91 223 -98 311 -98 120 1 180
47 254 192 63 127 45 121 367 121 230 0 280 -3 308 -16 69 -32 65 36 65 -1168
0 -1192 3 -1139 -60 -1171 -26 -14 -69 -15 -315 -13 l-285 3 -25 25 c-21 22
-32 56 -65 215 -84 398 -183 664 -329 882 -236 353 -579 531 -1101 574 -302
24 -524 -12 -740 -120 -389 -195 -696 -615 -910 -1246 -148 -438 -244 -959
-280 -1520 -19 -293 -9 -932 20 -1345 113 -1591 536 -2481 1301 -2734 166 -55
275 -70 499 -69 953 2 1436 444 1620 1483 26 148 44 196 81 216 43 22 567 21
610 -2 62 -31 59 19 59 -1156 0 -722 -4 -1085 -11 -1111 -7 -26 -21 -44 -42
-57 -30 -19 -52 -20 -315 -20 -226 0 -289 3 -311 14 -16 9 -41 39 -60 75 -47
88 -86 115 -177 119 -86 5 -110 0 -419 -83 -285 -77 -529 -127 -755 -154 -571
-70 -1124 -46 -1597 70 -817 200 -1502 667 -2007 1372 -384 534 -656 1239
-760 1967 -45 317 -51 407 -50 795 0 384 10 536 54 835 233 1581 1138 2760
2459 3200 378 126 703 180 1191 198 19 1 124 -3 233 -8z m9896 -68 c19 -9 43
-28 53 -42 11 -15 102 -264 204 -555 102 -292 579 -1650 1059 -3020 480 -1369
966 -2755 1080 -3080 114 -324 223 -624 243 -665 46 -99 134 -188 213 -218 76
-28 186 -42 335 -42 142 0 184 -12 208 -59 23 -44 24 -547 1 -591 -34 -65 120
-60 -1833 -60 l-1774 0 -34 34 -34 34 0 276 c0 303 3 322 58 349 19 10 89 16
230 21 211 7 267 17 325 58 56 40 82 126 67 223 -14 86 -239 810 -373 1193
l-60 172 -1361 0 -1362 0 -243 -596 c-133 -328 -251 -630 -262 -672 -28 -108
-25 -176 9 -243 24 -47 35 -58 92 -87 80 -40 177 -52 433 -52 276 0 267 12
267 -354 0 -284 -5 -312 -59 -340 -27 -15 -155 -16 -1247 -14 l-1216 3 -29 33
-29 32 0 276 c0 301 3 320 58 347 18 10 82 16 187 20 88 4 190 13 228 21 145
32 265 123 334 252 17 32 707 1677 1533 3653 826 1977 1511 3612 1521 3634 14
27 33 44 62 58 40 17 72 19 562 19 476 0 523 -2 554 -18z m-5510 -1478 c121
-17 283 -68 380 -119 207 -109 360 -293 421 -505 31 -107 38 -283 16 -383 -34
-150 -136 -313 -277 -440 -98 -89 -288 -211 -451 -291 -81 -39 -147 -73 -148
-76 0 -3 130 -201 289 -439 l290 -433 74 113 c144 219 248 434 318 655 22 71
45 139 50 152 20 50 39 52 586 52 453 0 511 -2 532 -16 31 -22 26 -41 -50
-217 -42 -98 -72 -152 -95 -174 -33 -32 -36 -33 -121 -33 -49 0 -106 -5 -127
-10 -75 -17 -67 -7 -319 -390 -155 -236 -272 -392 -400 -532 l-107 -116 39
-49 c83 -105 210 -191 346 -233 57 -18 103 -23 245 -27 96 -3 181 -10 188 -15
6 -6 12 -23 12 -38 0 -37 -133 -347 -160 -374 -20 -20 -32 -21 -293 -24 -286
-4 -404 5 -534 39 -146 38 -281 107 -360 182 l-32 30 -93 -61 c-220 -145 -470
-231 -769 -263 -151 -17 -446 -6 -589 20 -392 74 -717 268 -894 534 -171 257
-219 584 -129 872 115 367 469 700 920 865 l73 26 -56 79 c-71 102 -146 255
-180 370 -26 83 -28 103 -28 265 0 187 11 250 68 390 109 272 386 493 725 580
200 51 440 64 640 34z"/>
<path d="M23448 13045 c-8 -13 -1289 -3196 -1295 -3217 -5 -17 54 -18 1137
-18 l1142 0 -6 26 c-4 14 -223 739 -487 1612 -264 873 -481 1591 -483 1597 -1
6 -4 6 -8 0z"/>
<path d="M18813 13310 c-88 -19 -168 -72 -218 -144 -67 -98 -89 -208 -74 -365
11 -118 37 -207 91 -316 43 -85 156 -265 167 -265 3 0 40 22 81 48 192 124
310 285 349 480 15 73 14 237 -3 297 -30 114 -98 205 -181 244 -50 24 -152 34
-212 21z"/>
<path d="M18165 11522 c-252 -183 -401 -522 -367 -836 29 -269 145 -453 347
-551 123 -60 221 -79 379 -72 126 5 181 19 283 70 61 32 194 131 246 184 l38
40 -422 579 c-232 318 -429 589 -438 600 l-17 22 -49 -36z"/>
</g>
</svg>
